<?xml version="1.0" encoding="utf-8"?>
<!-- Generator: Adobe Illustrator 16.0.3, SVG Export Plug-In . SVG Version: 6.00 Build 0)  -->
<!DOCTYPE svg PUBLIC "-//W3C//DTD SVG 1.1//EN" "http://www.w3.org/Graphics/SVG/1.1/DTD/svg11.dtd">
<svg version="1.1" id="Layer_1" xmlns="http://www.w3.org/2000/svg" xmlns:xlink="http://www.w3.org/1999/xlink" x="0px" y="0px"
	 width="32px" height="42px" viewBox="0 0 32 42" enable-background="new 0 0 32 42" xml:space="preserve">
<g>
	<g>
		<g>
			<g>
				<path fill="#FBC55A" d="M13.69,24.54c-0.15,0.09-0.31,0.14-0.48,0.14c-0.27,0-0.54-0.13-0.71-0.37L12.08,23.7h1.97
					C14.11,24.02,13.98,24.35,13.69,24.54z"/>
			</g>
			<g>
				<path fill="#FBC55A" d="M20.79,23.7l-0.95,1.359c-0.18,0.25-0.47,0.391-0.76,0.391c-0.17,0-0.35-0.05-0.51-0.16
					c-0.42-0.271-0.521-0.82-0.24-1.23l0.25-0.359H20.79z"/>
			</g>
			<g>
				<path fill="#FBC55A" d="M17.6,23.7c-0.06,0.41-0.42,0.72-0.87,0.72c-0.43,0-0.8-0.31-0.86-0.72H17.6z"/>
			</g>
			<path fill="#FBC55A" d="M32,12.44c-0.83-0.53-1.63-0.97-2.41-1.33l-8.8,12.59h-2.21l9.26-13.24c-3.17-0.94-6.229-0.5-10.22,0.92
				v12.18c0,0.051,0,0.101-0.021,0.141H15.87c-0.02-0.04-0.02-0.09-0.02-0.141V11.41c0-0.05,0-0.09,0.02-0.13
				C11.53,9.29,7.58,9.42,4.7,10.05l9.22,13.33c0.07,0.101,0.11,0.21,0.13,0.32h-1.97L2.96,10.53c-1.76,0.58-2.84,1.23-2.95,1.3
				C3.09,1.98,10.72,0.14,16.15,0C26.13,0.14,30.97,6.01,32,12.44z"/>
		</g>
		<rect x="1" y="23.7" fill="#F0504D" width="30" height="18.3"/>
	</g>
	<g>
		<defs>
			<path id="SVGID_1_" d="M16.638,38.936l-0.895-0.868c-3.322-2.859-5.49-4.789-5.49-7.151c0-1.927,1.534-3.42,3.509-3.42
				c1.089,0,2.173,0.497,2.876,1.304c0.702-0.807,1.785-1.304,2.874-1.304c1.979,0,3.51,1.493,3.51,3.42
				c0,2.362-2.169,4.292-5.49,7.151L16.638,38.936z M16.638,38.936"/>
		</defs>
		<use xlink:href="#SVGID_1_"  overflow="visible" fill="#F0EFEF"/>
		<clipPath id="SVGID_2_">
			<use xlink:href="#SVGID_1_"  overflow="visible"/>
		</clipPath>
		<g clip-path="url(#SVGID_2_)">
			<rect x="10.1" y="27.433" fill="#F0EFEF" width="6.536" height="11.457"/>
			<rect x="16.635" y="27.433" fill="#F0EFEF" width="6.406" height="11.457"/>
		</g>
	</g>
</g>
</svg>
