<?xml version="1.0" encoding="utf-8"?>
<!-- Generator: Adobe Illustrator 16.0.3, SVG Export Plug-In . SVG Version: 6.00 Build 0)  -->
<!DOCTYPE svg PUBLIC "-//W3C//DTD SVG 1.1//EN" "http://www.w3.org/Graphics/SVG/1.1/DTD/svg11.dtd">
<svg version="1.1" id="Layer_1" xmlns="http://www.w3.org/2000/svg" xmlns:xlink="http://www.w3.org/1999/xlink" x="0px" y="0px"
	 width="35px" height="32px" viewBox="0 0 35 32" enable-background="new 0 0 35 32" xml:space="preserve">
<g>
	<g>
		<g>
			<defs>
				<path id="SVGID_1_" d="M17.536,29.756l-2.204-2.18C7.153,20.395,1.808,15.554,1.808,9.615c0-4.834,3.778-8.584,8.646-8.584
					c2.682,0,5.354,1.249,7.083,3.277c1.728-2.028,4.399-3.277,7.08-3.277c4.869,0,8.647,3.75,8.647,8.584
					c0,5.938-5.345,10.779-13.523,17.961L17.536,29.756z M17.536,29.756"/>
			</defs>
			<clipPath id="SVGID_2_">
				<use xlink:href="#SVGID_1_"  overflow="visible"/>
			</clipPath>
			<g clip-path="url(#SVGID_2_)">
				<rect x="1.43" y="0.872" fill="#FFFFFF" width="16.101" height="28.77"/>
				<rect x="17.531" y="0.872" fill="#F0504D" width="15.78" height="28.77"/>
			</g>
		</g>
		<g>
			<path fill="#FBC55A" d="M17.536,31.965l-2.981-2.899C6.124,21.788,0.036,16.526,0.036,9.804c0-5.517,4.42-9.839,10.063-9.839
				c2.741,0,5.448,1.088,7.437,2.95c1.987-1.862,4.694-2.95,7.437-2.95c5.643,0,10.063,4.322,10.063,9.839
				c0,6.723-6.089,11.984-14.52,19.262L17.536,31.965z M10.1,1.917c-4.541,0-8.098,3.464-8.098,7.887
				c0,5.568,5.01,10.165,13.864,17.808l0.043,0.039l1.627,1.582l1.669-1.621c8.855-7.643,13.863-12.239,13.863-17.808
				c0-4.423-3.557-7.887-8.096-7.887c-2.5,0-5.062,1.165-6.691,3.045l-0.745,0.859l-0.745-0.859
				C15.163,3.082,12.599,1.917,10.1,1.917z"/>
		</g>
	</g>
</g>
</svg>
