<?xml version="1.0" encoding="utf-8"?>
<!-- Generator: Adobe Illustrator 16.0.3, SVG Export Plug-In . SVG Version: 6.00 Build 0)  -->
<!DOCTYPE svg PUBLIC "-//W3C//DTD SVG 1.1//EN" "http://www.w3.org/Graphics/SVG/1.1/DTD/svg11.dtd">
<svg version="1.1" id="Layer_1" xmlns="http://www.w3.org/2000/svg" xmlns:xlink="http://www.w3.org/1999/xlink" x="0px" y="0px"
	 width="30px" height="16px" viewBox="0 0 30 16" enable-background="new 0 0 30 16" xml:space="preserve">
<g>
	<path fill="#50599E" d="M24.713,9.47c1.17-0.994,1.908-2.432,1.908-4.04c0-3.003-2.571-5.438-5.745-5.438
		c-3.175,0-5.748,2.435-5.748,5.438c0,1.604,0.738,3.042,1.905,4.037c-2.987,0.217-5.348,2.56-5.369,5.443l-0.058,1.082h18.339
		L30,14.99c0.012-1.465-0.598-2.876-1.691-3.919C27.344,10.149,26.066,9.588,24.713,9.47L24.713,9.47z M24.713,9.47"/>
	<path fill="#50599E" d="M3.708,10.286v2.02c0,0.837,0.717,1.515,1.601,1.515c0.885,0,1.603-0.678,1.603-1.515v-2.02h2.134
		c0.883,0,1.601-0.682,1.601-1.519c0-0.838-0.717-1.518-1.601-1.518H6.912V5.259c0-0.836-0.718-1.515-1.603-1.515
		c-0.884,0-1.601,0.679-1.601,1.515V7.25H1.603C0.718,7.25,0,7.93,0,8.768c0,0.837,0.718,1.519,1.603,1.519H3.708z M3.708,10.286"/>
</g>
</svg>
