<?xml version="1.0" encoding="utf-8"?>
<!-- Generator: Adobe Illustrator 16.0.3, SVG Export Plug-In . SVG Version: 6.00 Build 0)  -->
<!DOCTYPE svg PUBLIC "-//W3C//DTD SVG 1.1//EN" "http://www.w3.org/Graphics/SVG/1.1/DTD/svg11.dtd">
<svg version="1.1" id="Layer_1" xmlns="http://www.w3.org/2000/svg" xmlns:xlink="http://www.w3.org/1999/xlink" x="0px" y="0px"
	 width="17px" height="17px" viewBox="0 0 17 17" enable-background="new 0 0 17 17" xml:space="preserve">
<g>
	<g>
		<g>
			<path fill-rule="evenodd" clip-rule="evenodd" fill="#50599E" d="M1.592,13.812H3.72c0.586,0,1.061-0.475,1.061-1.062V7.437
				c0-0.588-0.475-1.061-1.061-1.061H1.592c-0.586,0-1.06,0.473-1.06,1.061v5.312C0.532,13.337,1.006,13.812,1.592,13.812
				L1.592,13.812z M2.124,7.968h1.064v4.249H2.124V7.968z M7.436,13.812h2.125c0.588,0,1.063-0.475,1.063-1.062V1.063
				C10.624,0.477,10.148,0,9.561,0H7.436c-0.586,0-1.06,0.477-1.06,1.063v11.686C6.376,13.337,6.85,13.812,7.436,13.812
				L7.436,13.812z M7.968,1.592h1.064v10.625H7.968V1.592z M13.28,13.812h2.125c0.589,0,1.062-0.475,1.062-1.062V4.248
				c0-0.585-0.474-1.06-1.062-1.06H13.28c-0.586,0-1.063,0.475-1.063,1.06v8.501C12.217,13.337,12.694,13.812,13.28,13.812
				L13.28,13.812z M13.812,4.781h1.062v7.436h-1.062V4.781z M16.201,15.405H0.796C0.355,15.405,0,15.763,0,16.201
				C0,16.642,0.355,17,0.796,17h15.405C16.642,17,17,16.642,17,16.201C17,15.763,16.642,15.405,16.201,15.405L16.201,15.405z
				 M16.201,15.405"/>
		</g>
	</g>
</g>
</svg>
