<?xml version="1.0" encoding="utf-8"?>
<!-- Generator: Adobe Illustrator 16.0.3, SVG Export Plug-In . SVG Version: 6.00 Build 0)  -->
<!DOCTYPE svg PUBLIC "-//W3C//DTD SVG 1.1//EN" "http://www.w3.org/Graphics/SVG/1.1/DTD/svg11.dtd">
<svg version="1.1" id="Layer_1" xmlns="http://www.w3.org/2000/svg" xmlns:xlink="http://www.w3.org/1999/xlink" x="0px" y="0px"
	 width="10px" height="11px" viewBox="0 0 10 11" enable-background="new 0 0 10 11" xml:space="preserve">
<g>
	<path fill="#F0504D" d="M5.017,11c-2.757,0-5-2.188-5-4.876c0-1.572,0.783-3.055,2.095-3.97c0.354-0.247,0.847-0.167,1.101,0.179
		C3.466,2.679,3.384,3.159,3.03,3.407C2.131,4.033,1.596,5.048,1.596,6.124c0,1.839,1.535,3.337,3.421,3.337
		c1.886,0,3.42-1.498,3.42-3.337c0-1.076-0.535-2.091-1.434-2.717C6.649,3.159,6.568,2.679,6.821,2.333
		c0.253-0.346,0.747-0.425,1.102-0.179c1.312,0.915,2.094,2.398,2.094,3.97C10.017,8.812,7.773,11,5.017,11L5.017,11z M5.017,11"/>
	<path fill="#F0504D" d="M5.017,5.904c-0.437,0-0.79-0.344-0.79-0.77V0.771C4.227,0.345,4.581,0,5.017,0
		c0.436,0,0.79,0.345,0.79,0.77v4.364C5.807,5.56,5.453,5.904,5.017,5.904L5.017,5.904z M5.017,5.904"/>
</g>
</svg>
