<?xml version="1.0" encoding="utf-8"?>
<!-- Generator: Adobe Illustrator 16.0.3, SVG Export Plug-In . SVG Version: 6.00 Build 0)  -->
<!DOCTYPE svg PUBLIC "-//W3C//DTD SVG 1.1//EN" "http://www.w3.org/Graphics/SVG/1.1/DTD/svg11.dtd">
<svg version="1.1" id="Layer_1" xmlns="http://www.w3.org/2000/svg" xmlns:xlink="http://www.w3.org/1999/xlink" x="0px" y="0px"
	 width="32px" height="43px" viewBox="0 0 32 43" enable-background="new 0 0 32 43" xml:space="preserve">
<g>
	<path fill="#FFFFFF" d="M17.74,2.853C17.17,2.742,16.59,2.681,16,2.681c-0.6,0-1.19,0.061-1.75,0.172
		c0.39-0.647,1.03-1.072,1.74-1.072C16.71,1.781,17.351,2.206,17.74,2.853z"/>
	<path fill="#FFFFFF" d="M29.49,28.757H2.5c0.04-0.04,0.08-0.081,0.12-0.112c4.39-3.855,6.26-8.823,6.26-16.614
		c0-3.986,3.19-7.225,7.12-7.225c3.92,0,7.11,3.238,7.11,7.225c0,7.781,1.869,12.759,6.26,16.614
		C29.41,28.676,29.45,28.717,29.49,28.757z"/>
	<path fill="#F0504D" d="M18.84,30.892c-0.43,1.174-1.54,2.013-2.85,2.013c-1.3,0-2.41-0.839-2.84-2.013H18.84z"/>
	<g>
		<path fill="#DBDBDB" d="M30.74,27.025c-2.88-2.519-5.54-6.09-5.54-14.995c0-3.875-2.34-7.214-5.65-8.621
			C19.181,1.457,17.729,0,15.99,0c-1.73,0-3.18,1.458-3.54,3.41C9.13,4.816,6.79,8.155,6.79,12.03c0,8.915-2.66,12.477-5.54,15.006
			C0.45,27.744,0,28.757,0,29.828c0,0.588,0.46,1.063,1.04,1.063h9.94c0.48,2.357,2.55,4.148,5.01,4.148
			c2.47,0,4.54-1.791,5.021-4.148h9.939c0.58,0,1.05-0.476,1.05-1.063C32,28.746,31.54,27.725,30.74,27.025z M15.99,1.781
			c0.72,0,1.36,0.425,1.75,1.072C17.17,2.742,16.59,2.681,16,2.681c-0.6,0-1.19,0.061-1.75,0.172
			C14.64,2.206,15.28,1.781,15.99,1.781z M15.99,32.904c-1.3,0-2.41-0.839-2.84-2.013h5.69C18.41,32.065,17.3,32.904,15.99,32.904z
			 M2.5,28.757c0.04-0.04,0.08-0.081,0.12-0.112c4.39-3.855,6.26-8.823,6.26-16.614c0-3.986,3.19-7.225,7.12-7.225
			c3.92,0,7.11,3.238,7.11,7.225c0,7.781,1.869,12.759,6.26,16.614c0.04,0.031,0.08,0.072,0.12,0.112H2.5z"/>
	</g>
</g>
<g>
	<path fill="#DBDBDB" d="M15.816,39.846c-0.097,0-0.194-0.002-0.292-0.006c-3.572-0.151-5.91-3.018-6.008-3.14
		c-0.173-0.216-0.141-0.533,0.073-0.708c0.212-0.176,0.527-0.145,0.701,0.072c0.021,0.025,2.166,2.641,5.285,2.768
		c2.064,0.072,4.15-0.941,6.153-3.051c0.19-0.201,0.505-0.207,0.704-0.015s0.205,0.512,0.015,0.713
		C20.327,38.714,18.097,39.846,15.816,39.846z"/>
</g>
<g>
	<path fill="#DBDBDB" d="M15.76,43c-0.125,0-0.25-0.003-0.376-0.008c-4.62-0.195-7.646-3.904-7.772-4.062
		c-0.173-0.216-0.141-0.533,0.073-0.709c0.213-0.176,0.527-0.143,0.701,0.073c0.028,0.035,2.882,3.52,7.049,3.69
		c2.781,0.113,5.539-1.249,8.2-4.054c0.189-0.2,0.506-0.207,0.704-0.015c0.198,0.193,0.205,0.512,0.015,0.713
		C21.599,41.531,18.71,43,15.76,43z"/>
</g>
</svg>
