<?xml version="1.0" encoding="utf-8"?>
<!-- Generator: Adobe Illustrator 16.0.3, SVG Export Plug-In . SVG Version: 6.00 Build 0)  -->
<!DOCTYPE svg PUBLIC "-//W3C//DTD SVG 1.1//EN" "http://www.w3.org/Graphics/SVG/1.1/DTD/svg11.dtd">
<svg version="1.1" id="Layer_1" xmlns="http://www.w3.org/2000/svg" xmlns:xlink="http://www.w3.org/1999/xlink" x="0px" y="0px"
	 width="30px" height="35px" viewBox="0 0 30 35" enable-background="new 0 0 30 35" xml:space="preserve">
<g>
	<g>
		<path fill="#F0504D" d="M28.824,4.775l-13.22-4.671C15.405,0.036,15.203,0,14.996,0s-0.413,0.036-0.612,0.106L1.212,4.777
			C0.499,5.029,0,5.692,0,6.432v11.067c0,2.472,0.812,4.944,2.365,7.345c1.19,1.844,2.846,3.648,4.896,5.367
			c3.429,2.879,6.831,4.537,6.974,4.605C14.486,34.939,14.764,35,15.036,35c0.27,0,0.541-0.059,0.789-0.178
			c0.143-0.066,3.543-1.699,6.976-4.564c2.053-1.715,3.684-3.521,4.874-5.369C29.227,22.48,30,19.994,30,17.499V6.432
			C30,5.69,29.538,5.028,28.824,4.775z"/>
		<g>
			<path fill="#76BE83" d="M27.819,17.294c0,0,0.833,7.413-11.694,14.758c-0.364,0.211-1.189,0.238-1.189,0.279V17.48"/>
			<path fill="#FFFFFF" d="M2.264,17.294c0,0-0.719,8.049,11.718,14.758c0.369,0.197,0.443,0.238,0.954,0.279V17.294H2.264z"/>
		</g>
		<g>
			<path fill="#FFFFFF" d="M14.974,2.437v15.399H27.81V7.663c0,0-0.087-0.794-0.775-1.017C26.345,6.42,15.329,2.499,15.329,2.499
				S15.128,2.432,14.974,2.437z"/>
			<path fill="#B6E4FA" d="M14.969,2.437v15.399H2.266V7.663c0,0,0.085-0.794,0.768-1.017C3.715,6.42,14.617,2.499,14.617,2.499
				S14.816,2.432,14.969,2.437z"/>
		</g>
	</g>
</g>
</svg>
