<?xml version="1.0" encoding="utf-8"?>
<!-- Generator: Adobe Illustrator 16.0.3, SVG Export Plug-In . SVG Version: 6.00 Build 0)  -->
<!DOCTYPE svg PUBLIC "-//W3C//DTD SVG 1.1//EN" "http://www.w3.org/Graphics/SVG/1.1/DTD/svg11.dtd">
<svg version="1.1" id="Layer_1" xmlns="http://www.w3.org/2000/svg" xmlns:xlink="http://www.w3.org/1999/xlink" x="0px" y="0px"
	 width="24px" height="24px" viewBox="0 0 24 24" enable-background="new 0 0 24 24" xml:space="preserve">
<g>
	<path fill="#FFFFFF" d="M24,11.995c0,0.126-0.108,0.225-0.225,0.225H12.219v11.556c0,0.117-0.098,0.225-0.224,0.225
		c-0.125,0-0.225-0.107-0.225-0.225V12.219H0.224C0.098,12.219,0,12.121,0,11.995c0-0.125,0.098-0.224,0.224-0.224h11.547V0.224
		c0-0.125,0.1-0.224,0.225-0.224c0.126,0,0.224,0.099,0.224,0.224v11.547h11.557C23.892,11.771,24,11.869,24,11.995z"/>
</g>
</svg>
