<?xml version="1.0" encoding="utf-8"?>
<!-- Generator: Adobe Illustrator 16.0.3, SVG Export Plug-In . SVG Version: 6.00 Build 0)  -->
<!DOCTYPE svg PUBLIC "-//W3C//DTD SVG 1.1//EN" "http://www.w3.org/Graphics/SVG/1.1/DTD/svg11.dtd">
<svg version="1.1" id="Layer_1" xmlns="http://www.w3.org/2000/svg" xmlns:xlink="http://www.w3.org/1999/xlink" x="0px" y="0px"
	 width="1px" height="58px" viewBox="0 0 1 58" enable-background="new 0 0 1 58" xml:space="preserve">
<g>
	<path fill="#7EB3C6" d="M0.5,58C0.224,58,0,57.777,0,57.503v-1.298c0-0.274,0.224-0.497,0.5-0.497c0.276,0,0.5,0.223,0.5,0.497
		v1.298C1,57.777,0.776,58,0.5,58z M0.5,53.715c-0.276,0-0.5-0.223-0.5-0.497V51.92c0-0.274,0.224-0.497,0.5-0.497
		c0.276,0,0.5,0.223,0.5,0.497v1.298C1,53.492,0.776,53.715,0.5,53.715z M0.5,49.43c-0.276,0-0.5-0.223-0.5-0.497v-1.299
		c0-0.274,0.224-0.497,0.5-0.497c0.276,0,0.5,0.223,0.5,0.497v1.299C1,49.207,0.776,49.43,0.5,49.43z M0.5,45.145
		c-0.276,0-0.5-0.223-0.5-0.497v-1.299c0-0.274,0.224-0.497,0.5-0.497c0.276,0,0.5,0.223,0.5,0.497v1.299
		C1,44.922,0.776,45.145,0.5,45.145z M0.5,40.859c-0.276,0-0.5-0.223-0.5-0.497v-1.299c0-0.274,0.224-0.497,0.5-0.497
		c0.276,0,0.5,0.223,0.5,0.497v1.299C1,40.637,0.776,40.859,0.5,40.859z M0.5,36.573c-0.276,0-0.5-0.223-0.5-0.497v-1.298
		c0-0.274,0.224-0.497,0.5-0.497c0.276,0,0.5,0.223,0.5,0.497v1.298C1,36.351,0.776,36.573,0.5,36.573z M0.5,32.288
		c-0.276,0-0.5-0.223-0.5-0.497v-1.298c0-0.274,0.224-0.497,0.5-0.497c0.276,0,0.5,0.223,0.5,0.497v1.298
		C1,32.065,0.776,32.288,0.5,32.288z M0.5,28.004c-0.276,0-0.5-0.224-0.5-0.498v-1.298c0-0.274,0.224-0.497,0.5-0.497
		c0.276,0,0.5,0.223,0.5,0.497v1.298C1,27.78,0.776,28.004,0.5,28.004z M0.5,23.719c-0.276,0-0.5-0.223-0.5-0.498v-1.297
		c0-0.275,0.224-0.498,0.5-0.498c0.276,0,0.5,0.223,0.5,0.498v1.297C1,23.496,0.776,23.719,0.5,23.719z M0.5,19.434
		c-0.276,0-0.5-0.223-0.5-0.498v-1.297c0-0.275,0.224-0.498,0.5-0.498c0.276,0,0.5,0.223,0.5,0.498v1.297
		C1,19.211,0.776,19.434,0.5,19.434z M0.5,15.148c-0.276,0-0.5-0.223-0.5-0.498v-1.297c0-0.275,0.224-0.498,0.5-0.498
		c0.276,0,0.5,0.223,0.5,0.498v1.297C1,14.926,0.776,15.148,0.5,15.148z M0.5,10.863c-0.276,0-0.5-0.223-0.5-0.498V9.068
		C0,8.793,0.224,8.57,0.5,8.57C0.776,8.57,1,8.793,1,9.068v1.297C1,10.641,0.776,10.863,0.5,10.863z M0.5,6.578
		C0.224,6.578,0,6.355,0,6.081V4.783c0-0.275,0.224-0.498,0.5-0.498c0.276,0,0.5,0.223,0.5,0.498v1.298
		C1,6.355,0.776,6.578,0.5,6.578z M0.5,2.293C0.224,2.293,0,2.07,0,1.795V0.498C0,0.223,0.224,0,0.5,0C0.776,0,1,0.223,1,0.498
		v1.297C1,2.07,0.776,2.293,0.5,2.293z"/>
</g>
</svg>
