<?xml version="1.0" encoding="utf-8"?>
<!-- Generator: Adobe Illustrator 16.0.3, SVG Export Plug-In . SVG Version: 6.00 Build 0)  -->
<!DOCTYPE svg PUBLIC "-//W3C//DTD SVG 1.1//EN" "http://www.w3.org/Graphics/SVG/1.1/DTD/svg11.dtd">
<svg version="1.1" id="Layer_1" xmlns="http://www.w3.org/2000/svg" xmlns:xlink="http://www.w3.org/1999/xlink" x="0px" y="0px"
	 width="1px" height="27px" viewBox="0 0 1 27" enable-background="new 0 0 1 27" xml:space="preserve">
<path fill="#7EB3C6" d="M0.5,25.359c-0.276,0-0.5-0.223-0.5-0.497v-1.299c0-0.274,0.224-0.497,0.5-0.497
	c0.276,0,0.5,0.223,0.5,0.497v1.299C1,25.137,0.776,25.359,0.5,25.359z"/>
<path fill="#7EB3C6" d="M0.5,21.073c-0.276,0-0.5-0.223-0.5-0.497v-1.298c0-0.274,0.224-0.497,0.5-0.497
	c0.276,0,0.5,0.223,0.5,0.497v1.298C1,20.851,0.776,21.073,0.5,21.073z"/>
<path fill="#7EB3C6" d="M0.5,16.788c-0.276,0-0.5-0.223-0.5-0.497v-1.298c0-0.274,0.224-0.497,0.5-0.497
	c0.276,0,0.5,0.223,0.5,0.497v1.298C1,16.565,0.776,16.788,0.5,16.788z"/>
<path fill="#7EB3C6" d="M0.5,12.504c-0.276,0-0.5-0.224-0.5-0.498v-1.298c0-0.274,0.224-0.497,0.5-0.497
	c0.276,0,0.5,0.223,0.5,0.497v1.298C1,12.28,0.776,12.504,0.5,12.504z"/>
<path fill="#7EB3C6" d="M0.5,8.219C0.224,8.219,0,7.996,0,7.721V6.424c0-0.275,0.224-0.498,0.5-0.498c0.276,0,0.5,0.223,0.5,0.498
	v1.297C1,7.996,0.776,8.219,0.5,8.219z"/>
<path fill="#7EB3C6" d="M0.5,3.934C0.224,3.934,0,3.711,0,3.436V2.139c0-0.275,0.224-0.498,0.5-0.498c0.276,0,0.5,0.223,0.5,0.498
	v1.297C1,3.711,0.776,3.934,0.5,3.934z"/>
</svg>
