<?xml version="1.0" encoding="utf-8"?>
<!-- Generator: Adobe Illustrator 16.0.3, SVG Export Plug-In . SVG Version: 6.00 Build 0)  -->
<!DOCTYPE svg PUBLIC "-//W3C//DTD SVG 1.1//EN" "http://www.w3.org/Graphics/SVG/1.1/DTD/svg11.dtd">
<svg version="1.1" id="Layer_1" xmlns="http://www.w3.org/2000/svg" xmlns:xlink="http://www.w3.org/1999/xlink" x="0px" y="0px"
	 width="24px" height="24px" viewBox="0 0 24 24" enable-background="new 0 0 24 24" xml:space="preserve">
<g>
	<path fill="#4292A5" d="M24,11.997c0,0.126-0.107,0.225-0.224,0.224L12.22,12.219l0.001,11.557c0,0.115-0.098,0.225-0.224,0.225
		s-0.225-0.109-0.224-0.225L11.771,12.22L0.224,12.218C0.1,12.218,0,12.12,0,11.995c0-0.127,0.101-0.225,0.225-0.225l11.548,0.001
		L11.771,0.225C11.771,0.101,11.868,0,11.995,0c0.125,0,0.223,0.1,0.223,0.224l0.002,11.549l11.557,0.001
		C23.893,11.773,24,11.871,24,11.997z"/>
</g>
</svg>
