<?xml version="1.0" encoding="utf-8"?>
<!-- Generator: Adobe Illustrator 16.0.3, SVG Export Plug-In . SVG Version: 6.00 Build 0)  -->
<!DOCTYPE svg PUBLIC "-//W3C//DTD SVG 1.1//EN" "http://www.w3.org/Graphics/SVG/1.1/DTD/svg11.dtd">
<svg version="1.1" id="Layer_1" xmlns="http://www.w3.org/2000/svg" xmlns:xlink="http://www.w3.org/1999/xlink" x="0px" y="0px"
	 width="23.798px" height="19.831px" viewBox="0 0 23.798 19.831" enable-background="new 0 0 23.798 19.831" xml:space="preserve">
<g>
	<path fill="#259E49" d="M22.488,1.309C21.615,0.437,20.566,0,19.335,0h-4.957c-0.135,0-0.24,0.033-0.318,0.1
		c-0.076,0.068-0.129,0.168-0.154,0.303c-0.025,0.133-0.041,0.255-0.045,0.364c-0.006,0.107-0.004,0.245,0.006,0.41
		s0.016,0.269,0.016,0.31c0.031,0.083,0.041,0.152,0.031,0.209s0.025,0.104,0.109,0.139c0.082,0.037,0.123,0.065,0.123,0.085
		c0,0.021,0.059,0.037,0.178,0.046c0.119,0.011,0.178,0.015,0.178,0.015h4.834c0.682,0,1.266,0.244,1.752,0.729
		c0.484,0.485,0.729,1.069,0.729,1.75v10.907c0,0.682-0.244,1.265-0.729,1.751c-0.486,0.484-1.07,0.729-1.752,0.729h-4.957
		c-0.135,0-0.24,0.033-0.318,0.1c-0.076,0.068-0.129,0.168-0.154,0.302c-0.025,0.136-0.041,0.257-0.045,0.364
		c-0.006,0.109-0.004,0.246,0.008,0.412c0.01,0.164,0.014,0.268,0.014,0.309c0,0.135,0.049,0.251,0.148,0.349
		c0.098,0.099,0.213,0.147,0.348,0.147h4.957c1.23,0,2.281-0.437,3.154-1.31c0.871-0.872,1.309-1.924,1.309-3.152V4.462
		C23.798,3.232,23.361,2.181,22.488,1.309L22.488,1.309z M22.488,1.309"/>
	<path fill="#259E49" d="M18.345,9.915c0-0.269-0.1-0.5-0.295-0.698L9.622,0.79C9.426,0.593,9.193,0.495,8.924,0.495
		c-0.268,0-0.5,0.098-0.696,0.294C8.031,0.986,7.933,1.219,7.933,1.487v4.462h-6.94c-0.269,0-0.502,0.098-0.698,0.294
		C0.099,6.439,0,6.672,0,6.941v5.949c0,0.269,0.099,0.502,0.294,0.697c0.197,0.196,0.43,0.295,0.698,0.295h6.94v4.462
		c0,0.269,0.099,0.501,0.295,0.696c0.196,0.197,0.429,0.295,0.696,0.295c0.27,0,0.502-0.098,0.698-0.295l8.428-8.428
		C18.246,10.416,18.345,10.184,18.345,9.915L18.345,9.915z M18.345,9.915"/>
</g>
</svg>
