<?xml version="1.0" encoding="utf-8"?>
<!-- Generator: Adobe Illustrator 16.0.3, SVG Export Plug-In . SVG Version: 6.00 Build 0)  -->
<!DOCTYPE svg PUBLIC "-//W3C//DTD SVG 1.1//EN" "http://www.w3.org/Graphics/SVG/1.1/DTD/svg11.dtd">
<svg version="1.1" id="Layer_1" xmlns="http://www.w3.org/2000/svg" xmlns:xlink="http://www.w3.org/1999/xlink" x="0px" y="0px"
	 width="23.795px" height="19.831px" viewBox="0 0 23.795 19.831" enable-background="new 0 0 23.795 19.831" xml:space="preserve">
<g>
	<path fill="#F58968" d="M22.484,18.521c0.874-0.872,1.312-1.923,1.312-3.152V4.462c0-1.229-0.438-2.28-1.31-3.152
		C21.613,0.437,20.562,0,19.331,0h-4.959c-0.135,0-0.25,0.049-0.348,0.147c-0.1,0.098-0.148,0.214-0.148,0.349
		c0,0.041-0.004,0.145-0.014,0.309c-0.012,0.166-0.014,0.303-0.008,0.412c0.004,0.107,0.02,0.229,0.045,0.364
		c0.025,0.134,0.078,0.233,0.154,0.302c0.078,0.066,0.184,0.1,0.318,0.1h4.959c0.682,0,1.267,0.244,1.753,0.729
		c0.484,0.486,0.729,1.069,0.729,1.751v10.907c0,0.682-0.244,1.265-0.729,1.75c-0.486,0.485-1.071,0.729-1.753,0.729h-4.836
		c0,0-0.059,0.004-0.178,0.015c-0.119,0.01-0.178,0.025-0.178,0.047c0,0.02-0.041,0.049-0.123,0.085
		c-0.084,0.036-0.119,0.083-0.109,0.14s0,0.126-0.031,0.209c0,0.041-0.006,0.145-0.016,0.31c-0.01,0.166-0.012,0.303-0.006,0.41
		c0.004,0.109,0.02,0.23,0.045,0.364c0.025,0.135,0.078,0.235,0.154,0.303c0.078,0.067,0.184,0.101,0.318,0.101h4.959
		C20.562,19.831,21.611,19.394,22.484,18.521L22.484,18.521z M22.484,18.521"/>
	<path fill="#F58968" d="M0,9.915c0,0.269,0.1,0.501,0.295,0.697l8.428,8.428c0.197,0.197,0.43,0.295,0.699,0.295
		c0.268,0,0.5-0.098,0.695-0.295c0.197-0.195,0.295-0.428,0.295-0.697v-4.461h6.942c0.268,0,0.5-0.1,0.697-0.295
		c0.195-0.195,0.295-0.43,0.295-0.697V6.941c0-0.269-0.1-0.501-0.295-0.698c-0.195-0.196-0.43-0.294-0.697-0.294h-6.942V1.487
		c0-0.268-0.098-0.5-0.295-0.697C9.922,0.593,9.689,0.495,9.422,0.495c-0.27,0-0.502,0.098-0.699,0.294L0.295,9.217
		C0.1,9.415,0,9.646,0,9.915L0,9.915z M0,9.915"/>
</g>
</svg>
